<svg xmlns="http://www.w3.org/2000/svg" width="221.888" height="226.364" viewBox="0 0 221.888 226.364">
  <g id="layer1" transform="translate(221.888 145.611) rotate(149)">
    <path id="path826" d="M117.958.244c-.334.122-2.191.83-4.125,1.573a29.806,29.806,0,0,1-7.291,1.776,21.218,21.218,0,0,0-5.5,1.256,10.221,10.221,0,0,0-4.624,5.923l-.52,1.658-1.626-.292c-1.63-.293-3.977-.312-11.145-.092-2.116.065-5.506-.02-7.533-.188a14.309,14.309,0,0,0-5.936.345c-2.891.836-3.03.826-3.361-.256-.985-3.225-4.09-5.191-9.922-6.282a36.272,36.272,0,0,1-8.3-2.6C41.555.153,39.035-.229,34.3.977a64.965,64.965,0,0,0-13.982,6.76,22.9,22.9,0,0,0-4.049,4.774c-1.211,1.851-2.957,4.3-3.88,5.44a15.562,15.562,0,0,0-3.159,7.424A7.753,7.753,0,0,1,8,28.151C6.606,30.026,6.14,32.778,6.043,39.7l-.084,6L7.3,48.508l1.338,2.81L7.5,52.1C5.038,53.8,1.424,57.842.718,59.68L0,61.551l1.708,5.371a53.593,53.593,0,0,0,2.7,7.092C5.988,76.766,21.63,88.749,27.63,91.805c5.417,2.76,13.974,5.342,15.619,4.713.436-.166.583.12.583,1.138,0,1.162-.282,1.561-1.937,2.745-2.275,1.626-8.9,8.647-11.7,12.392a28.25,28.25,0,0,1-5.6,5.328c-4.53,3.366-7.3,6.048-8.441,8.159-.8,1.483-.875,2.226-.874,8.476,0,6.046.112,7.205.947,9.873a19.247,19.247,0,0,0,5.152,8.845c2.512,2.3,4.1,2.873,9.081,3.262,6.444.5,8.647,1.17,15.747,4.763,7.518,3.805,13.422,5.891,18.286,6.461,1.894.222,7.544.622,12.557.89,8.07.432,9.563.412,13.037-.172,3.411-.573,4.132-.586,5.521-.1,4.6,1.615,12.321,1.742,15.69.26,2.124-.935,4.125-3.478,5.025-6.385a38.219,38.219,0,0,1,2.29-5.287c1.465-2.768,1.57-3.191,1.5-6.045-.141-5.954-2.17-11.224-5.21-13.531a5.245,5.245,0,0,1-1.6-1.811,19.364,19.364,0,0,1,.631-4.893c1.309-6.081,1.083-7.3-2.792-15.07-2.646-5.307-5.543-12.589-5.167-12.991a27.206,27.206,0,0,1,3.324.373c2.9.421,3.613.381,6.955-.395a37.044,37.044,0,0,0,5.92-1.9c1.209-.569,7.909-4.807,14.889-9.418,13.516-8.928,16.589-11.508,18.578-15.6,1.159-2.381,1.5-5.7.739-7.113a35.954,35.954,0,0,0-7.245-7.465c-2.648-1.757-4.389-2.223-6.529-1.746a54.436,54.436,0,0,1-6.231.645l-4.445.247,1.649-.781a20.512,20.512,0,0,0,3.757-2.643,22.668,22.668,0,0,1,3.7-2.671c3.358-1.7,5.061-6.409,5.473-15.115.245-5.179.187-6.3-.4-7.858a24.343,24.343,0,0,1-1.032-4.564,18.281,18.281,0,0,0-2.434-7.727c-.615-1.108-1.716-3.466-2.446-5.239-1.572-3.815-4.043-6.506-9.075-9.881C126.729,1.034,124.03-.027,121,0A15.4,15.4,0,0,0,117.958.244ZM120.932,2.8a5.6,5.6,0,0,1,1.534,2.41l.477,1.583.951-1.021c1.114-1.2,1.16-1.382.343-1.382-.682,0-.709-.074-.362-.974.328-.851,1.9-.811,2.7.068a7.108,7.108,0,0,1,1.088,1.873c.429,1.122.47,1.138,1.06.4.57-.71.594-.664.342.646-.266,1.377-.253,1.394.519.705a2.03,2.03,0,0,1,3.007-.025c.491.6.467.647-.21.394a2.178,2.178,0,0,0-2.725,1.03c-.4.736-.359.8.3.547,1.236-.478,1.572-.462,1.465.069-.121.6.555.675.911.1s3.267-.5,3.775.114a7.572,7.572,0,0,1,.881,1.693c.442,1.156.436,1.164-.354.452a2.015,2.015,0,0,0-2.042-.453c-1.715.375-1.876.869-.381,1.167,1.122.223,1.2.324.7.932-.438.537-.442.614-.019.36.911-.545,3.876.855,4.68,2.21.4.68.63,1.341.5,1.468s-.347-.067-.488-.431c-.181-.468-.747-.66-1.934-.656-1.114,0-1.49.124-1.12.358a.611.611,0,0,1,.28.8c-.16.258,0,.448.373.448a5.626,5.626,0,0,1,1.875.63c1,.513,1.134.737.74,1.209s-.36.579.111.579c.8,0,2.08,1.455,1.748,1.99a1.079,1.079,0,0,1-.834.428c-.312,0,.2.715,1.138,1.589,1.652,1.539,1.681,1.608.9,2.178s-.787.6.2,1.433c.9.755.933.887.334,1.246s-.54.54.506,1.655c1.262,1.344,1.65,3.338.569,2.925-.8-.307-.8,1,0,2.528a5.96,5.96,0,0,1,.595,2.363c-.009,1.091-.063,1.14-.549.5-.3-.388-.655-.705-.8-.705-.511,0-.246,1.712.446,2.876.486.819.567,1.276.262,1.473a6.143,6.143,0,0,0-.662,2.749c-.227,2.562-1.574,6.2-2.3,6.2-.442,0-.11-1.263.429-1.628.177-.12.179-.744.006-1.388l-.315-1.17-.686.974a3.931,3.931,0,0,0-.686,1.859c0,1.239-.422,2.2-.853,1.932-.2-.123-.363.025-.363.328a2.793,2.793,0,0,1-.633,1.333c-.594.734-.617.686-.379-.769.171-1.049.114-1.465-.177-1.286a1.222,1.222,0,0,0-.431.954,6.2,6.2,0,0,1-1.072,2.258c-.952,1.393-1.127,1.494-1.564.9-.674-.917-1.008-.839-1.023.237-.012.84-.053.855-.551.2-.773-1.013-1.056-.875-1.056.516,0,.672-.252,1.318-.56,1.436-.456.174-2.078-.377-4-1.36-.167-.086-.193.131-.058.482.363.94-1.12.819-2.419-.2-.644-.5-1.067-.642-1.067-.347a1.713,1.713,0,0,0,.709,1.024c1.03.778-.061.713-1.8-.107a7.329,7.329,0,0,1-2.444-2.216c-.994-1.495-1.733-1.983-1.733-1.146,0,.938-1.655.29-2.806-1.1-1.105-1.334-1.245-1.4-1.245-.6,0,.494.182.9.405.9s.405.272.405.6c0,.953-.647.713-1.822-.678a2.737,2.737,0,0,1-.879-2.519l.34-2.042c.11-.662-.06-.783-.954-.68-1.445.168-2.516-1.361-2.1-3.005.26-1.04.223-1.1-.387-.6-.942.772-.816,4.465.132,3.882.174-.107.414.176.533.63.181.69.119.744-.381.331-1.2-.995-1.555-2.261-1.787-6.46-.182-3.3-.418-4.554-1.021-5.44l-.784-1.152-.134,1.41-.134,1.41-.56-1.007-.56-1.007-.012,1.007a5.4,5.4,0,0,0,.79,2.317c.618,1.008.672,1.31.237,1.31-.7,0-2.663-3.825-2.663-5.188a8.13,8.13,0,0,1,.459-2.262,2.409,2.409,0,0,0-.186-2.446L103,30.787l-.016,1.108c-.009.61-.179,1.108-.378,1.108-.568,0-.893-1.185-1.15-4.2-.237-2.781-.239-2.784-.983-1.869-.928,1.14-.978,1.923-.076,1.179.6-.5.6-.414-.034.8-1.077,2.073-1.629,1.043-1.762-3.29-.142-4.622-.586-7.868-1.237-9.047-.752-1.362.439-1.207,1.55.2l.874,1.108-.227-1.007a10.788,10.788,0,0,1-.233-1.9c0-.58-.2-.821-.548-.687-1.124.429-1.616-.892-1.1-2.946,1.046-4.132,1.983-3.857,3.052.894.346,1.537.892.7,1.053-1.606a6.335,6.335,0,0,1,2.153-4.6L105,5.057V6.115a1.746,1.746,0,0,1-.56,1.38,3.853,3.853,0,0,0-.859,2.112l-.3,1.79,1.568-1.589c1.019-1.033,1.449-1.759,1.228-2.075s.043-.867.71-1.531c.97-.965,1.23-1.024,3.426-.777,2.493.281,3.386-.151,2.5-1.209-.365-.438-.117-.579,1.282-.728a2.848,2.848,0,0,1,2.849.838c1.1,1.012,1.114,1.014,1.114.141,0-1.133.542-1.123,1.347.025l.636.907.021-.9a1.805,1.805,0,0,0-.789-1.407c-.446-.277-.81-.641-.81-.809,0-.6,1.53-.291,2.569.522Zm-7.106,6.721a11.22,11.22,0,0,0-6.809,5.9,9.489,9.489,0,0,0-1.3,5.178c.015,2.873,1.153,8.308,2.976,14.215,1.244,4.029,1.245,4.031,4.748,7.455a54.421,54.421,0,0,0,5.124,4.518c2.182,1.472,6.59,2.334,11.874,2.324,7.3-.015,9.627-1.824,10.367-8.051.609-5.123-1.563-15.511-3.985-19.062a79.353,79.353,0,0,0-8.485-9.741c-4.042-3.067-10.414-4.269-14.511-2.737Zm3.944,2.483a1.458,1.458,0,0,0,.54,1.4c.738.664.778.632,1.055-.838a3.575,3.575,0,0,1,.736-1.8c.695-.427,1.909.412,1.909,1.319,0,.449-.182.7-.405.567-.749-.461-.413.875.405,1.612.793.714.81.7.81-.465a3.86,3.86,0,0,1,.554-1.948c.532-.724.6-.712,1.616.3.854.85.991,1.239.7,1.986-.2.511-.561.884-.806.829-.558-.127-.56.14-.006,1.17.415.771.475.742,1.114-.529.926-1.843,1.838-1.883,3.574-.156,1.69,1.681,1.512,2.4-.271,1.085-.666-.49-1.21-.691-1.21-.449,0,1.027.9,1.968,2.326,2.424,1.669.535,2.535,1.1,2.535,1.641,0,.195-.273.354-.608.354s-.608.181-.608.4.328.4.729.4c.751,0,1.7.72,1.7,1.29,0,.177-.41.338-.911.356-.7.026-.525.211.784.81,1.813.83,3.376,2.48,3.356,3.543-.009.51-.109.476-.455-.155a3.193,3.193,0,0,0-2.333-1.813c-.437,0-.354.185.28.627,1.04.724,1.176,1.388.286,1.388-.362,0,.136.716,1.215,1.744,1.654,1.577,1.826,1.915,1.787,3.526-.041,1.708-.061,1.736-.483.674-.549-1.381-1.2-1.463-.857-.108a4.831,4.831,0,0,1-.206,2.308c-.362,1.033-.354,1.2.039.813.718-.714,1.159-.607.872.211-.221.63-.179.641.395.1a9.036,9.036,0,0,0,1.309-1.813l.667-1.209-.295,1.612a32.3,32.3,0,0,0-.34,4.162c-.042,2.372-.142,2.637-1.436,3.788-1.16,1.032-1.429,1.13-1.62.587-.151-.429-.417-.535-.78-.312a1.957,1.957,0,0,1-1.316.14c-.6-.157-.765.019-.765.832,0,1.078.632,1.813.892,1.037.1-.284.35-.21.692.2.415.5.424.649.037.649s-.4.131-.03.569c1.14,1.366-1.788,1.175-3.038-.2-.66-.725-.727-.729-1.27-.065-.388.475-.638.549-.774.23-.144-.339-.527-.285-1.366.194-1.5.855-2.02.347-.882-.858a3.784,3.784,0,0,0,.879-1.218c0-.483-2.457.946-2.7,1.569-.33.855-.818.712-1.11-.323-.234-.827-.293-.845-.675-.2-.51.86-1.971.914-3.035.114-.443-.333-.565-.6-.28-.6s.506-.494.506-1.083c0-1.011-.041-1.033-.741-.4-1.145,1.031-2.807.827-4.151-.511-1.182-1.176-1.524-2.046-.8-2.046a.869.869,0,0,1,.632.4.929.929,0,0,0,.7.4c.249,0,.028-.449-.491-1a3.228,3.228,0,0,1-.908-2.216c.019-.67-.122-1.218-.314-1.218-.666,0-1.586,1.235-1.359,1.825.339.879-.572.719-1.059-.187-.6-1.125-.515-2.669.188-3.25a2.241,2.241,0,0,0,.595-1.561c-.012-1.026-.031-1.034-.594-.253-1.752,2.43-2.229,2.391-2.229-.181,0-1.354-.2-2.1-.607-2.333-.529-.295-.506-.536.178-1.871l.786-1.533-.969.242c-.855.213-1,.074-1.237-1.176a5.476,5.476,0,0,1,.422-3.625c.223-.633.064-.568-.745.3a7.988,7.988,0,0,1-1.15,1.108,5.781,5.781,0,0,1-.111-1.652,2.837,2.837,0,0,1,.638-2.115,7.472,7.472,0,0,0,1.353-1.572c.625-.956.639-1.108.1-1.108a2.694,2.694,0,0,0-1.464,1.062c-.725.917-.84.956-.84.291a2.682,2.682,0,0,1,2.251-2.562c1,0,1.324-.553.585-1.007a.922.922,0,0,1-.393-.729c.006-.264.553.112,1.215.836l1.2,1.316V16.891c0-.668-.182-1.215-.405-1.215-.5,0-.54-2.287-.042-2.593.2-.123.483.088.629.469.229.593.321.607.644.1.276-.435.386-.217.409.817.031,1.353.048,1.37.44.4l.408-1.007.565,1.007.565,1.007.044-1.209c.117-3.191.813-4.465,2.072-3.8a.922.922,0,0,1,.559,1.133ZM36.055,3.264c.73.726.589,1.128-.395,1.128H34.78l.829.907a5.417,5.417,0,0,1,1.006,1.482c.109.356.487-.02.991-.985q1.663-3.188,4.237-2.946l1.382.131-1.215.608A2.294,2.294,0,0,0,40.654,5.2l-.14,1L41.49,5.3c1.21-1.124,1.531-1.139,1.531-.073v.833L44.234,5.2a3.347,3.347,0,0,1,3.043-.585c2.072.309,2.576.751,1.526,1.336-.64.356-.594.446.423.831a11.713,11.713,0,0,0,3.265.431c1.579,0,2.353.211,3.012.822.951.881,1.247,2.251.38,1.759-.278-.158-.033.239.545.883a24.274,24.274,0,0,1,1.721,2.167l.67,1V12.373c0-1.764-.357-2.819-.853-2.514-.2.123-.363-.332-.363-1.01,0-1.467.379-1.549,1.5-.326,1.281,1.4,1.833,2.7,1.576,3.726s.112,3.431.52,3.42a7.683,7.683,0,0,0,1.215-2.216c.529-1.215,1.183-2.209,1.454-2.209,1.353,0,2.045,5.321.756,5.814a.833.833,0,0,1-.976-.223c-.183-.294-.471.133-.739,1.095-.623,2.231-.574,2.34.623,1.4,1.589-1.244,2.446-1.106,1.394.225a8.751,8.751,0,0,0-1.265,2.72c-.235.913-.523,1.932-.642,2.264a17.779,17.779,0,0,0-.368,2.893c-.155,2.33-1.088,5.166-1.7,5.166-.185,0-.548-.557-.807-1.239-.4-1.065-.388-1.171.114-.757.718.593.8-.066.164-1.255s-1.138-.936-1.419.732c-.385,2.284-1.423,5.339-1.814,5.339-.191,0-.4-.589-.475-1.31l-.128-1.31-.729,1.33a3.05,3.05,0,0,0-.447,2.214c.674,2.113,0,4.285-2,6.429-1.438,1.541-2.137,1.391-.938-.2a9.442,9.442,0,0,0,1.29-2.317c.294-.976.279-.986-.491-.3-1.155,1.025-1.44.873-1.115-.6.263-1.192.229-1.254-.4-.735-1.2.988-1.8,2.626-2.234,6.1-.234,1.855-.425,3.416-.425,3.47a14.139,14.139,0,0,1-2.839,2.946c-.179,0-.227-.373-.107-.829s.448-.741.739-.63a.617.617,0,0,0,.757-.413c.376-.975.274-2.893-.169-3.165-.23-.141-.405.2-.405.782a2.506,2.506,0,0,1-2.923,2.485l-1.219-.243.277,1.839c.263,1.744.2,1.91-1.2,3.223-1.6,1.5-2.228,1.722-2.228.78,0-.332.182-.6.405-.6s.4-.5.389-1.108l-.016-1.108-.6,1.1a3.392,3.392,0,0,1-3.19,1.924c-.69,0-1.039-.221-1.039-.656,0-.455-.559-.143-1.826,1.019-2.008,1.842-3.333,2.482-4.985,2.411-.62-.027-.8-.123-.413-.224a1.461,1.461,0,0,0,.9-.759c.284-.736-.136-.723-1.144.036-1.194.9-2.657.768-2.657-.237,0-.776-.057-.789-.9-.2a5.555,5.555,0,0,1-2.633.627c-1.724,0-1.733-.008-1.733-1.473,0-1.414-.03-1.446-.759-.79s-.772.635-1.019-.24-.3-.875-.8-.218c-.3.388-.646.705-.77.705-.48,0-1.858-2.694-2.134-4.17-.191-1.024-.4-1.373-.615-1.026a3.084,3.084,0,0,0-.082,1.753c.221,1.11.18,1.175-.432.675a2.36,2.36,0,0,1-.682-1.612c0-.8-.1-.915-.377-.475-.291.458-.43.349-.645-.5a3.479,3.479,0,0,1-.056-1.651,2.787,2.787,0,0,0-.714-1.822l-.932-1.257-.26,1.292a2.359,2.359,0,0,0,.15,1.7,1.959,1.959,0,0,1,.4,1.234c-.013.805-.033.8-.773-.08C8.816,48.014,8,43.216,8.56,41.752c.337-.881.3-1.092-.18-1.092-.84,0-.749-.446.415-2.015a5.368,5.368,0,0,0,1.013-1.892c0-.766-1.1-.644-1.623.179-.352.554-.393.36-.19-.907A5.507,5.507,0,0,1,9.03,33.582c1.023-1.1,1.007-2.19-.033-2.19-1.212,0-.987-.724.767-2.469C11.092,27.6,11.239,27.3,10.7,27s-.423-.49.662-1.147c1.134-.686,1.223-.856.686-1.3-.955-.789-.768-1.141,1.3-2.448,1.761-1.111,1.844-1.232,1-1.453-1.187-.309-.976-.9.629-1.753.873-.466,1.144-.811.859-1.094-.472-.469,1.557-1.32,3.149-1.32,1.011,0,1.3-.6.446-.942-.278-.112-.051-.238.506-.281.743-.057.581-.164-.608-.4a3.136,3.136,0,0,0-2.63.321l-1.01.642.639-.98a6.623,6.623,0,0,1,5.026-2.422c.891-.018,1.392-.124,1.114-.236-1-.4-.478-.942.911-.942,1.82,0,1.811-.5-.02-1.161-1.232-.443-1.58-.425-2.43.13-1.361.887-1.247.178.224-1.388,1.089-1.159,1.377-1.267,2.734-1.02a8.144,8.144,0,0,1,2.416.852c.789.506.871.5.665-.03-.328-.851,1-.785,2,.1.786.7.788.689.135-.58a2.155,2.155,0,0,0-2.182-1.42L25.4,6.589l1.156-.578a1.848,1.848,0,0,1,2.329.092c1.17.668,1.173.667,1.187-.42l.014-1.089.544.976c.53.952.55.956.81.141.689-2.159,3.437-3.617,4.612-2.448ZM31,10.354a20.99,20.99,0,0,0-8.084,6.007c-.855,1.063-2.261,2.749-3.123,3.747-3.415,3.949-5.5,10.145-5.829,17.348-.269,5.821.388,8.539,2.51,10.392,1.8,1.576,3.68,2.078,7.708,2.063,4.544-.017,9.18-.918,11.413-2.22a39.825,39.825,0,0,0,5.414-4.565c4.128-4.047,4.518-4.877,6.75-14.355,1.124-4.773,1.373-6.53,1.184-8.35a12.2,12.2,0,0,0-6.454-9.662C40.091,9.516,33.977,9.3,31,10.354Zm4.33,2.53c.365,1.348.547,1.557,1.016,1.169a1.617,1.617,0,0,0,.483-1.282,1.439,1.439,0,0,1,.586-1.247c1.145-.741,1.958.334,1.958,2.588,0,1.081.182,1.965.405,1.965s.405-.272.405-.6.182-.6.405-.6.411.408.417.907c.011.816.054.836.43.193a2.278,2.278,0,0,0,.132-1.609c-.247-.774-.2-.826.341-.378.51.421.666.421.838,0,.164-.405.306-.387.641.084a1.436,1.436,0,0,1-.165,2.159c-.631.628-.794,1.551-.351,1.992.141.14.61-.192,1.042-.739s.983-.994,1.224-.994.118.353-.274.783c-.69.759-.67.795.646,1.131a2.8,2.8,0,0,1,1.9,1.463c.595,1.221.245,2.081-.388.955A3.434,3.434,0,0,0,45.84,19.7c-1.373-.731-.951.685.691,2.318.816.812,1.3,1.537,1.072,1.613s-.322.629-.213,1.231l.2,1.094L46.47,24.944l-1.118-1.007.285,1.007c.157.554.366,1.3.466,1.659a3.561,3.561,0,0,1-.242,1.758c-.316.827-.625,1.053-1.225.9-.975-.254-.974-.268-.094,1.58.538,1.13.587,1.53.2,1.659-.278.094-.506.775-.506,1.514,0,2.8-1.253,3.581-2.188,1.368-.429-1.015-.579-1.121-.8-.559a2.824,2.824,0,0,0,.548,2c1.03,1.657,1.024,2.3-.029,3.489-.544.614-.77.716-.637.289.188-.6-1.212-2.36-1.877-2.36-.147,0-.156.554-.02,1.231.2.994.028,1.459-.9,2.418-.629.653-.938,1.187-.687,1.187a.934.934,0,0,0,.707-.4c.361-.58,1.013-.5,1.013.131,0,.749-1.767,2.318-2.682,2.382a7.311,7.311,0,0,1-1.851-.224c-1.215-.309-1.993.4-1.089.988.455.3.413.475-.228.962-.99.751-1.447.75-2.538-.011-.806-.562-.893-.541-1.151.268l-.28.876-.66-.826c-.772-.966-2.483-1.921-2.483-1.387a1.613,1.613,0,0,0,.608.869c.637.526.834,1.612.293,1.612a3.966,3.966,0,0,1-1.259-.658c-.792-.552-1-.568-1.305-.1-.281.435-.416.358-.61-.346l-.249-.9-1.2,1c-1.347,1.128-4.069,1.486-3.178.418a.979.979,0,0,0,.257-.962c-.128-.206.038-.6.37-.873.451-.373.6-.378.6-.022,0,.262.182.364.405.227a1.274,1.274,0,0,0,.405-.987c0-.543-.373-.781-1.411-.9-.776-.09-1.482.026-1.568.258-.24.647-1.534-.248-2.59-1.791-.912-1.332-1.274-3.5-.506-3.026.584.359.5-.588-.248-2.771-.826-2.412-.531-2.749.677-.772.731,1.195.97,1.37,1.1.8.137-.613.263-.645.812-.2s.611.423.371-.213a7.729,7.729,0,0,1-.278-2.139c0-.832-.165-1.3-.405-1.152A1.376,1.376,0,0,0,17.1,34.26c0,.443-.182.694-.405.557-1.2-.737.217-4.368,2.208-5.666,1.2-.781,1.337-1.38.323-1.4-.592-.011-.549-.146.26-.816.533-.442.858-.913.722-1.048s-.9.405-1.7,1.2c-1.18,1.174-1.4,1.278-1.182.557A5.218,5.218,0,0,1,20.6,24.521c1.55-.509,1.8-1.183.447-1.2l-.911-.014.956-.792a3.5,3.5,0,0,1,1.62-.807c.468-.011.376-.173-.313-.553l-.977-.538.977-.629a8.353,8.353,0,0,1,2.114-.907c1.116-.273,2.643-1.993,2.179-2.454-.13-.129-.729.151-1.332.623-1.234.965-1.638.875-1.042-.232,1.261-2.344,3.759-2.743,4.53-.724.466,1.219.647,1.238,1.244.129.392-.73.367-.829-.161-.628-.457.175-.7-.1-.907-1.024a1.594,1.594,0,0,1,.642-2.005c1.229-.99,1.718-.75,2.24,1.1l.437,1.55.692-.978c.6-.855.614-.994.073-1.108-.732-.154-.751-.28-.2-1.307.745-1.386,1.93-.964,2.424.862Zm41.8.071a7.453,7.453,0,0,1,1.3,2.8c.711,2.5,1.216,3.126,1.642,2.033.255-.654.314-.648.853.079.431.583.579.629.579.181a1.76,1.76,0,0,1,.472-1.07c.359-.357.606-.3,1.035.222.493.605.5.568.076-.3a5.932,5.932,0,0,0-1.339-1.678c-1.065-.859-.673-1.337.617-.752a7.063,7.063,0,0,1,2.8,4.508l.014.928.789-.942.789-.942.478,1.043c.58,1.267.983,1.314,1.59.186.572-1.064-.012-2.526-1.462-3.661-1.777-1.391-1.053-1.618,1.232-.387,2.18,1.175,2.228,1.182,2.241.332s.02-.861.81.083a3.34,3.34,0,0,1,.8,1.6c0,.508.129.466.6-.2a2.959,2.959,0,0,1,1.371-1.047c.7-.182.822.16,1.245,3.476,1.142,8.957,3.239,14.776,7.163,19.872a39.649,39.649,0,0,1,4.235,7.44c2.671,6.059,4.982,8.338,9.941,9.8,1.828.54,6.116,2.913,5.775,3.2-.081.068-1.412.875-2.958,1.793L117,63.227h3.128l-.982,1.065-.982,1.065,1.313-.249c1.228-.233,1.281-.2.814.546-.275.437-.618.8-.763.8a14.569,14.569,0,0,0-2.349,1.865,9.515,9.515,0,0,0-3.467,5.776L113.42,75.4l1.252-.921c.689-.506,1.36-.813,1.492-.682a9.278,9.278,0,0,1-1.622,2.994l-1.862,2.755,1.044.13c.574.071.981.253.9.4-3.2,6.243-3.163,6.117-3.114,10.257l.048,3.939,1.58-1.42a6.5,6.5,0,0,1,2.085-1.429c.278,0,.049-.364-.507-.8s-.789-.792-.516-.8c.684-.012,1.747-1.717,2.134-3.425.384-1.693.073-1.766-1.587-.376-.808.676-1.246.85-1.246.495,0-.905,2.308-3.4,3.656-3.96.914-.376,1.113-.611.726-.856s-.267-.338.378-.343c1.2-.008,1.159-.57-.09-1.137a2.389,2.389,0,0,1-1.057-3.24c.3-.553,1.031-.907,2.262-1.091,1.985-.3,2.341-.746.91-1.149l-.911-.257,1.093-.9a7.5,7.5,0,0,0,1.746-2.455c.586-1.4.77-1.533,1.8-1.328.989.2,1.119.12.941-.559s0-.787,1.248-.787c1.371,0,1.433-.056,1.083-.973s-.282-.985,1.612-1.244c2.282-.312,2.821-.1,2.856,1.133.025.84.047.834.475-.125.412-.922.463-.939.606-.2.16.827,2.026,2.458,2.394,2.092.3-.294-.854-2.376-1.764-3.2a8.671,8.671,0,0,0-2.371-1.265c-1.739-.617-1.727-.627,1.995-1.656,2.38-.658,3.221-.571,2.4.247-.318.316-.206.834.4,1.853l.839,1.414.641-1.717c.83-2.222,1.875-2.917,2.709-1.8a2.251,2.251,0,0,1,.39,1.647,2.154,2.154,0,0,0,.329,1.578c.5.677.562.625.8-.64.331-1.741,1.765-4.114,2.291-3.79a1.4,1.4,0,0,1-.2,2.1c-.424.236-.512.647-.3,1.42.288,1.067.307,1.053,1.043-.718.836-2.012,2.3-2.765,3.351-1.721.722.718.336,3.906-.513,4.23-.3.116-.55.68-.55,1.253v1.043l1.316-1.24c1.524-1.435,3.1-2.32,3.466-1.952.142.141.019.4-.272.581-.391.24-.308.383.318.546.827.215.83.25.135,1.464-.391.684-1.011,1.245-1.377,1.246a1,1,0,0,0-.881.56c-.161.416.2.563,1.437.58,2.119.029,2.926.84,2.926,2.939A3.057,3.057,0,0,1,152.442,77c-1.535,1.365-2.263,1.21-.933-.2a2.5,2.5,0,0,0,.009-3.738c-.869-.766-.87-.765-.61.3.216.886.139,1.038-.45.885-.506-.132-.846.172-1.179,1.049a2.041,2.041,0,0,1-1.69,1.477c-1.093.218-1.183.344-.854,1.206.439,1.149.292,1.183-1.126.258-1.053-.686-1.071-.684-.721.1a11.271,11.271,0,0,1,.492,2.82,4.446,4.446,0,0,1-1,3.626c-.626.886-1.4,1.611-1.727,1.612a4.269,4.269,0,0,0-1.683.74,2.962,2.962,0,0,1-1.823.572c-.6-.136-.52-.267.416-.716a4.5,4.5,0,0,0,2.3-3.584c0-.557.191-.74.608-.581.86.328.754-.326-.3-1.879-1.307-1.92-1.924-1.979-1.924-.185a6.483,6.483,0,0,1-2.3,4.912,3.645,3.645,0,0,1-2.493.422c-1.51-.2-1.534-.184-1.629,1.223-.138,2.043-.464,2.328-1.267,1.11l-.7-1.068-.243,1.763a16.438,16.438,0,0,1-.694,2.944c-.409,1.071-.49,1.112-.867.441-.363-.645-.535-.485-1.342,1.249-1.224,2.628-4.26,4.833-4.26,3.094,0-.346.184-.515.41-.376s.522-.305.663-1.006c.181-.9.425-1.192.863-1.025.509.194.572-.085.38-1.691a16.2,16.2,0,0,0-.688-3.119C125.5,88.157,125,88.76,124.6,91.4c-.234,1.542-.338,1.689-.772,1.1s-.59-.409-1.191,1.443c-.895,2.759-2.376,5.277-3.725,6.333s-1.592.84-.778-.725a5.762,5.762,0,0,0,.637-2.11c0-.73-.243-.567-1.392.929-1.411,1.839-3.5,3.139-5.049,3.139-.978,0-1.02-.14-.392-1.308.423-.787.5-.8.961-.168s.546.577.962-.431c.253-.613.637-1.734.853-2.491l.393-1.376L114,96.759c-1.521,1.411-2.928,2.115-2.928,1.465,0-.271-.5-.025-1.114.547-1.174,1.1-5.322,3.32-5.626,3.018-.1-.1.74-.943,1.863-1.878,1.537-1.28,2.042-1.973,2.042-2.8,0-1.854-3.113-4.071-8.77-6.246l-3.421-1.316,3.788-2.833c4.963-3.711,8.757-7.232,9.052-8.4.308-1.22-.708-5.6-2.744-11.826l-1.634-5-1.064,1.372C101.788,65,84.179,82.919,81.376,85.321c-2.436,2.087-2.557,2.139-4.328,1.868-5.155-.791-4.834-.638-6.309-3.007C68.42,80.458,57.2,55.379,57.2,53.92c0-.911-.348-.983-.968-.2-3.378,4.264-7.654,10.146-8.57,11.79L46.5,67.591l1.694,3.4c.932,1.87,2.8,5.079,4.156,7.131a32.279,32.279,0,0,1,2.339,3.831c-.068.055-1.992.217-4.275.36l-4.152.259V81.452a4.113,4.113,0,0,1,.631-2.017c.589-.836.577-.9-.179-.9a1.389,1.389,0,0,0-1.06.4c-.449.723-1.113.424-.9-.4.117-.444.047-.7-.155-.581a1.065,1.065,0,0,0-.367.83c0,.332-.182.492-.405.355-.738-.454-.42-2.284.608-3.5,1.005-1.189,1.384-3.15.608-3.15a.405.405,0,0,0-.405.4.405.405,0,0,1-.405.4c-.223,0-.405-.494-.405-1.1v-1.1l-.67.952c-.547.777-.579,1.1-.175,1.741.273.434.4.888.275,1.009-.411.409-1.4-.749-1.666-1.947-.213-.966-.028-1.456.987-2.605,1.312-1.486,1.828-3.576.642-2.6-.511.422-.609.349-.616-.454-.008-.75-.2-.565-.888.857-.862,1.778-.882,1.791-1.035.662-.242-1.793.577-3.2,2.551-4.389,1.855-1.115,2.477-2.179,1-1.713-.731.231-.771.152-.405-.805.576-1.507.556-1.517-.982-.514-1.05.685-1.282,1.031-.955,1.424.238.285.356.6.262.689-.32.318-1.05-.389-1.333-1.291-.243-.775-.054-.991,1.363-1.555,1.5-.6,2.21-1.373,1.253-1.373-.216,0-.275-.3-.132-.674.209-.542.107-.61-.519-.346a10.512,10.512,0,0,1-1.893.519c-.972.166-1.114.06-1.114-.831,0-.858.306-1.124,1.924-1.668C45,55.09,47.279,53.073,50.069,48.8a56.835,56.835,0,0,1,6.565-7.956,46.043,46.043,0,0,0,5.406-6.4c1.889-3.185,4.839-11.4,5.147-14.335.232-2.211.342-2.417,1.494-2.816A7.293,7.293,0,0,0,70.853,16l.929-.868v1.078c0,.593.077,1.078.171,1.078a8.17,8.17,0,0,0,1.4-1.225l1.231-1.225-1.1-.437-1.1-.437,1.62-.746c1.936-.891,2.282-.921,3.123-.263ZM14.262,55.382a21.323,21.323,0,0,0,3.888,2.986,24.529,24.529,0,0,0,9.175,1.957c1.741-.162,1.915.279.709,1.8a4.844,4.844,0,0,0-.81,1.263c0,.553,1.617.181,2.027-.467.347-.547.391-.275.2,1.209-.277,2.124-.2,2.2,1.239,1.259.639-.417.879-.82.658-1.108s-.068-.716.37-1.13c.674-.637.755-.62,1.353.288a4.3,4.3,0,0,1,.636,1.987c0,1.112.033,1.138.98.777q1.218-.465.006-1.8c-.886-.974-.062-1.342,1.032-.461a2.9,2.9,0,0,1,.954,2.383c.064,1.6.1,1.642.835,1s.76-.617.5,1.058c-.252,1.616-.219,1.7.5,1.319.68-.362.808-.237,1.046,1.029a37.915,37.915,0,0,0,1.431,4.525c.638,1.7,1.42,3.9,1.739,4.9s.716,2.131.883,2.519c.211.489.121.705-.292.705-.908,0-2.731,1.581-2.731,2.368a7.5,7.5,0,0,0,1.142,2.489,15.188,15.188,0,0,1,2.1,6.244c0,.472-.21.591-.709.4a8.362,8.362,0,0,1-3.779-3.036l-.482-1.015-.533,1.259c-.73,1.723-1.786,2.1-1.793.642a9.315,9.315,0,0,0-.239-1.96c-.215-.8-.315-.822-1.311-.3-1.067.554-4.116.791-4.116.32a6.629,6.629,0,0,1,1.073-1.511l1.073-1.267-1.684-.229a7.713,7.713,0,0,1-2.98-1.182l-1.3-.953.91,1.535a5.542,5.542,0,0,1,.792,1.652,9.031,9.031,0,0,1-2.108-.252c-2.112-.393-4.986-1.868-5.941-3.051-.4-.5-.008-.385,1.32.38A16.041,16.041,0,0,0,24.126,87c.11,0-.065-.53-.39-1.177a7.673,7.673,0,0,1-.678-2.417c-.1-1.354-.281-1.492-1.019-.758-.378.376-.486.2-.486-.806,0-1.505.115-1.465-1.839-.652-2.57,1.068-6.118-.14-8.87-3.019-1.441-1.508-1.207-1.548,1.392-.237,2.337,1.178,2.43,1.194,2.43.417,0-.467.312-.408,1.494.286.978.574,1.37.674,1.135.289-.2-.324-1.044-1.646-1.88-2.938L13.9,73.639l-.585,1.394c-.8,1.909-1.478,2.249-1.478.743a6.488,6.488,0,0,0-.246-1.837c-.287-.744-.969-.856-.969-.16a4.6,4.6,0,0,1-2.1,2.343c-.184,0-.334-.725-.334-1.612,0-1.438-.106-1.612-.984-1.612-1.375,0-2.257-1.026-2.257-2.624,0-1.788.6-2.085,1.721-.857,1.02,1.116,3.325,2.054,2.439.993a8.492,8.492,0,0,1-.929-2.618c-.392-1.821-.534-2.01-1.384-1.848-.993.189-2.658-.485-2.658-1.076,0-.19.482-.466,1.072-.613l1.072-.268L4.988,62.9a4.466,4.466,0,0,1-1.3-5.022c.506-1.311,2.417-2.234,2.937-1.419s.4,1.527-.264,1.527c-.784,0-.767.54.065,2.136l.673,1.29.379-1.123c.265-.785.58-1.06,1.049-.912.519.163.689-.083.753-1.093a31.235,31.235,0,0,1,.584-3.594c.464-2.121.562-2.259,1.334-1.868a21.746,21.746,0,0,1,3.062,2.56ZM58.125,59.4c2.8,7.188,9.655,21.719,11.454,24.278s2.2,3.955.587,2.073c-3.625-4.231-8.8-13.483-12.092-21.639A32.507,32.507,0,0,0,55.815,59.2c-.376-.214-6.656,7.559-6.694,8.286-.042.795,3.541,7.385,6.021,11.074C56.5,80.572,57.6,82.3,57.6,82.395s-.343.175-.762.175c-.9,0-1.95-1.313-5.057-6.319-2.633-4.241-3.88-6.813-3.893-8.025A11,11,0,0,1,49.557,64.8c1.813-2.791,6.857-9.347,7.042-9.152C56.661,55.718,57.348,57.4,58.125,59.4Zm-19.4-.5c.143.942.368,2.39.5,3.219l.242,1.506-3.837-1.808A32.779,32.779,0,0,0,31.329,60c-.72,0-.538-.687.249-.941.39-.126,1.711-.595,2.937-1.041C37.942,56.772,38.413,56.87,38.72,58.9Zm87.164,5.281a52.5,52.5,0,0,1-4.76,4.433,5.416,5.416,0,0,0-1.749,1.872c-.317.993-1.017,1.064-1,.1.018-.98.615-1.669,3.552-4.1a14.045,14.045,0,0,0,3.422-3.893c.791-1.619,1-1.781,2.336-1.781h1.466Zm-20.936,2.376c1.737,5.277,2.883,9.716,2.883,11.166,0,1.308-.3,1.794-2.329,3.71-1.281,1.213-4.129,3.525-6.328,5.138-3.256,2.389-4.15,2.867-4.812,2.573-.712-.316-.263-.768,3.594-3.624,5.7-4.219,9.248-7.532,8.936-8.342-.13-.338-.894-2.707-1.7-5.266a23.168,23.168,0,0,0-1.741-4.632,13.112,13.112,0,0,0-2.1,2.253c-4.6,5.632-16.081,15.76-20.3,17.9-2.425,1.231-1.851.4,1.261-1.835,2.757-1.976,21.061-20.363,21.061-21.156a.39.39,0,0,1,.372-.4,6.18,6.18,0,0,1,1.2,2.519ZM54.971,84.2c6.361.725,15.037,2.875,14.579,3.613-.136.219-.649.208-1.269-.027-2.389-.9-9.123-1.645-14.775-1.626a56.913,56.913,0,0,0-6.5.241c-.495.189-.465.808.2,4.239.43,2.21.968,4.018,1.2,4.018s2.344-.62,4.7-1.377c6.26-2.009,15.441-3.048,15.425-1.746-.014,1.111-.862,1.4-7.285,2.48A140.771,140.771,0,0,0,46.2,97.3c-.664.21-.748-.008-.748-1.943A14.175,14.175,0,0,0,43.2,87.7c-1.342-2.017-1.035-2.718,1.482-3.383C46.958,83.714,50.362,83.676,54.971,84.2Zm21.96,6.1c.608.5.409,2.115-.378,3.057-.448.537-2.691.33-4.063-.375-.807-.414-.918-1.612-.263-2.829.385-.715.7-.794,2.288-.577A6.5,6.5,0,0,1,76.931,90.3Zm14.293.181c6.894,1.144,14.421,3.986,15.405,5.817.4.74.138,1.126-2.314,3.427-2.845,2.67-3.163,2.839-4.156,2.214-.479-.3-.311-.775.94-2.65a6.74,6.74,0,0,0,1.329-2.787c-.591-1.533-15.654-6.256-19.991-6.269a2.247,2.247,0,0,1-1.582-.47c-.358-.576,4.664-.228,10.368.718Zm-3.65,5.671c2.8,1.611,7.7,5.021,7.7,5.36,0,.166-.572.416-1.272.555-1.072.213-1.885-.118-5.165-2.1-2.141-1.3-4.986-2.952-6.323-3.678-2.979-1.618-2.758-1.4-2.444-2.387.261-.819.281-.817,2.969.189A37.65,37.65,0,0,1,87.574,96.149Zm-13.228.775c1.407.667,1.478.791,1.225,2.129a17.468,17.468,0,0,1-1.031,3.137,18.689,18.689,0,0,0-1.083,4.362,7.915,7.915,0,0,1-.933,3.256,12.466,12.466,0,0,1-3.7,1.377c-6.264,1.557-8.51,3.712-7.8,7.481.318,1.686,2.994,4.87,3.94,4.687.385-.074,1.056.376,1.55,1.041.828,1.115,1.008,1.168,3.654,1.088,2.164-.066,2.835.051,3.017.524.193.5.419.437,1.269-.359a4.263,4.263,0,0,1,2.521-1.062c3.8-.242,5.082-.673,5.725-1.92a5.018,5.018,0,0,1,.86-1.321c.359-.17-.268-3.76-.709-4.059a61.077,61.077,0,0,1-7.369-6.016c-.879-1.683-.912-5.089-.074-7.7a17.422,17.422,0,0,0,.826-4.131c0-1.479.066-1.559,1.269-1.559,1.33,0,5.85,2.112,8.712,4.07a23.589,23.589,0,0,1,6.349,7.261l1.546,2.572-.152,3.828c-.116,2.921-.359,4.223-1.024,5.5-1.157,2.212-4.606,5.214-8.263,7.193-2.909,1.574-3.065,1.609-7.746,1.756-6.461.2-9.943-.605-13.842-3.21-3.406-2.276-5.045-3.935-8.071-8.172-2.581-3.614-3.264-5.588-2.959-8.551.378-3.671,2.241-6.2,7.018-9.518,6.214-4.319,11.329-5.553,15.272-3.682Zm-23.616,5.367c.009.439.314.288,1.013-.5.91-1.03,1-1.057,1-.3,0,.98.372,1.042,1.442.237,1.582-1.19,1.448-.566-.32,1.5-2.2,2.57-3.04,4.129-3.389,6.3-.2,1.265-.134,1.654.292,1.654.384,0,.57.554.6,1.775.043,1.992.921,5.478,1.38,5.478.165,0,.518.771.785,1.713a9.791,9.791,0,0,0,1.081,2.517c.5.679.653.712.963.213.2-.325.423-.5.49-.4s.67.794,1.338,1.53l1.215,1.338-1.094-.271c-2.549-.631-4.292,3.683-2.334,5.775,1.483,1.583,3.051,1.1,5.013-1.56.483-.653.792-.812.922-.474a7.761,7.761,0,0,0,1.983,1.732c1.671,1.144,1.787,1.17,1.787.4,0-.454.166-.825.369-.825.541,0,2.466,2.383,2.466,3.053,0,.832.334.719,1.885-.635a6.441,6.441,0,0,1,1.71-1.209c.393,0,1.266,1.819,1.266,2.638,0,.322.1.585.223.585a12.311,12.311,0,0,0,3.675-2.084c.748-.68.891-.7,1.1-.153s.406.528,1.571-.178c1.93-1.171,2.4-1.056,1.671.4-.553,1.1-.541,1.349.132,2.713.992,2.01,2.908,2.621,4.507,1.436,2.176-1.611,2.21-4.418.07-5.713l-1.2-.729,1.024-.464a2.688,2.688,0,0,0,1.258-1.07c.307-.8.959-.374.959.622,0,1.309.737.884,2.123-1.226A9.3,9.3,0,0,1,91.26,126.1c.131,0,.475.491.765,1.1l.526,1.108,1.008-2.169a15.738,15.738,0,0,0,1.215-4.738c.181-2.242.286-2.505.823-2.063a7.148,7.148,0,0,1,1.308,2.043c.643,1.427.71,1.47.943.6a8.158,8.158,0,0,0-.346-5.023c-.783-1.864-.769-2.018.208-2.272.849-.221,2.02-2.481,2.02-3.9v-.819l-.81.806c-.841.836-2.217,1.072-2.606.446a3.344,3.344,0,0,1,.387-1.813c.673-1.6.447-1.786-.974-.8-.813.566-.91.887-.7,2.317.223,1.529.131,1.425-1.172-1.316-1.626-3.422-1.587-3.27-.856-3.27a1.6,1.6,0,0,0,1.026-.561c.376-.451.215-.648-.826-1.009-.712-.247-1.192-.55-1.067-.675.469-.467,3.437.664,4.386,1.671l.986,1.047.219-1.143.219-1.143,1.505,1.473a6.859,6.859,0,0,1,1.761,2.745c.351,1.746.921,1.018,1.229-1.572.379-3.184,1.094-1.453.843,2.041a6.5,6.5,0,0,0,.1,2.767c.35,0,1.03-1.614,1.518-3.606l.34-1.389,1.094,3.065c1.314,3.682,1.322,3.77.25,2.7-.964-.959-.975-.955-1.335.537-.19.787-.111,1.108.272,1.108.69,0,2.321,1.739,3.685,3.929,1.017,1.633,1.029,1.713.251,1.713-1.1,0-1.041.281.6,2.71a17.154,17.154,0,0,1,1.418,2.312c0,.12-.632.217-1.406.217h-1.406l.995,1.458a12.043,12.043,0,0,1,1.4,2.922c.447,1.6.56,4.889.168,4.889a6.491,6.491,0,0,1-1.982-2.569c0-.337-1.164-.959-1.927-1.03-.169-.015.241.938.911,2.12a7.576,7.576,0,0,1,1.219,4.231c0,2.342-.583,2.713-1.363.867-.283-.669-.638-1.092-.791-.94-.562.559-.234,4.023.542,5.726.988,2.166,1.036,3.054.148,2.715-.5-.191-.584-.084-.358.461a7.725,7.725,0,0,1,.549,4.759c-.212.765-.545,1.391-.74,1.391-.317,0-.973-1.955-1.021-3.041a5.081,5.081,0,0,0-.953-1.612c-.91-1.16-.928-1.165-.7-.183.7,2.988.71,5.487.03,7.053l-.7,1.611-.5-1.406-.5-1.406-.243,2.341a6.888,6.888,0,0,1-1.308,3.731c-1.317,1.718-1.931,1.428-1.642-.777a5.026,5.026,0,0,0-.39-2.886c-.522-1.035-.583-1.069-.422-.232.238,1.239-.542,4.94-.984,4.668-.182-.112-.525.348-.761,1.022a11.669,11.669,0,0,1-1.282,2.417c-.974,1.36-.837,1.407,1.81.614,2.851-.854,4.812-2.32,7.067-5.283,2.54-3.339,4.3-7.512,5.565-13.235.547-2.463,1.192-4.979,1.433-5.59l.44-1.111,1.357,2.118a8.668,8.668,0,0,1,1.367,3.178c.008.8.318,1.186,1.273,1.58a4.971,4.971,0,0,1,2.786,4.4l0,1.4-.948-1a3.087,3.087,0,0,1-.911-1.6c.02-.335-.371-.662-.876-.733-.888-.126-.879-.076.348,1.888,1.238,1.982,1.251,2.054.732,4.159-.611,2.479-.719,2.683-1.1,2.068-.155-.249-.282.487-.282,1.637,0,2.042-1.183,5.489-1.884,5.489-.189,0-.346-.771-.35-1.713-.009-2.621-.641-3.141-.924-.761-.369,3.1-2.7,7.028-2.721,4.589-.014-1.635-.673-1.8-1.517-.376a5.043,5.043,0,0,1-2.995,2.207c-1.838.686-2.186.719-2.3.215a.5.5,0,0,0-.657-.4,18.523,18.523,0,0,1-2.4.479,5.723,5.723,0,0,1-4.035-.737,11.284,11.284,0,0,1-3.176-2.22l-1.018-1.2-1.251.974a9.979,9.979,0,0,1-9.2,1.6l-1.62-.5,3.058-.3a15.054,15.054,0,0,0,3.646-.67c.4-.254.429-.372.082-.376-1.108-.014-.422-.769.81-.893,1.072-.107.834-.222-1.281-.621a8.149,8.149,0,0,1-3.6-1.405l-1-.915.264,1.713c.243,1.58.193,1.716-.652,1.757a7.931,7.931,0,0,1-4.121-.683,3.783,3.783,0,0,0-1.262-.471c-.045.056-.3.526-.574,1.043-.658,1.256-2.771,2.082-5.33,2.082H68.026l.966-.737a8.057,8.057,0,0,1,1.648-.985c.787-.285,1.789-1.9,1.179-1.9a.873.873,0,0,0-.642.4c-.227.366-2.71,1.181-5.674,1.863l-1.215.279,1.114-1.123a3.886,3.886,0,0,0,1.114-1.673c0-.692.066-.7-1.823.256a7.389,7.389,0,0,1-2.488.806c-.821,0-.866-.113-.522-1.307.207-.719.377-1.332.377-1.363a11.89,11.89,0,0,0-1.519.483,9.713,9.713,0,0,1-5.274.331,1.512,1.512,0,0,1-1.457-1.406l-.234-1.162-1.485,1c-1.616,1.091-3.855,1.432-3.047.464a9.986,9.986,0,0,0,1.045-2.218l.6-1.68-1.7.3c-1.992.356-5.844.35-6.205-.009-.138-.137.135-.869.606-1.627a8.234,8.234,0,0,0,.856-1.615c0-.13-.752.027-1.671.35-1.827.641-6.7.784-7.6.223a.608.608,0,0,1-.285-.791c.15-.242-.091-.942-.537-1.556a7.665,7.665,0,0,1-1.076-2.23c-.215-.9-.146-1.067.356-.875.482.184.569.034.386-.665-.4-1.537-3.254-6.091-3.462-5.532-.351.945-1.187-1.8-1.405-4.611-.139-1.79-.063-2.72.221-2.72.238,0,.541.342.675.761.214.672,3.037,2.866,3.687,2.866.136,0-.211-.541-.77-1.2a15.494,15.494,0,0,1-2.7-6.733c0-1.05,0-1.051.879-.287s.874.757.555-.038a13.253,13.253,0,0,1-.529-1.756c-.183-.843-.115-.9.6-.523.8.425.8.409-.019-2.349-.452-1.528-1.015-2.743-1.251-2.7s-.585-1.176-.788-2.811c-.335-2.692-.294-2.978.6-4.227.842-1.176.978-1.242,1.114-.538a12.273,12.273,0,0,0,.558,1.809l.4,1.007.487-1.386c.547-1.555,1.444-2.123,1.444-.913a1.855,1.855,0,0,0,.574,1.264c.477.394.651.1,1.031-1.715a17.813,17.813,0,0,1,1.222-3.683,3.906,3.906,0,0,0,.579-1.979c-.1-.267.344-.99.992-1.609l1.179-1.124-.328,1.746a9.182,9.182,0,0,0,0,3.154c.183.775.351,1.153.374.84a9.922,9.922,0,0,1,1.123-2.406l1.082-1.837.492,1.4c.574,1.63.815,1.209,1.148-2a15.5,15.5,0,0,1,1.351-4.433l1.124-2.241.125,1.944c.105,1.641.216,1.869.709,1.462a1.548,1.548,0,0,0,.584-.872,7.314,7.314,0,0,1,1.114-1.953c.994-1.395,1.168-1.491,1.62-.894a2.7,2.7,0,0,1,.519,1.3ZM28.17,126.069c-1.468,6.438-.512,17.161,1.9,21.266,1.149,1.958,2.7,5.949,2.516,6.488-.3.894-.9.478-.915-.632-.012-1.049-.044-1.067-.593-.346a9.694,9.694,0,0,0-.8,1.209c-.149.306-.293.283-.459-.074-.185-.4-.375-.411-.806-.055-.31.256-.463.628-.34.826.446.718-1.075.829-2.111.154l-1.062-.693,1.167-.949,1.167-.949-1.215-.02c-1.632-.027-3.038-.426-3.038-.862,0-.2.308-.356.685-.356s-.4-.648-1.721-1.441a30.944,30.944,0,0,1-3.171-2.116,7.038,7.038,0,0,1-1.868-4.177v-.909l.631.9c.941,1.336,1.377,1.083.884-.514a2.891,2.891,0,0,1-.193-1.651c.133-.132,1.052.314,2.041.991l1.8,1.232-1.619-3.152a12.968,12.968,0,0,1-1.827-6.129c-.208-2.976-.208-2.977.62-2.244s.827.73.276-.806c-.758-2.114-.743-2.987.033-1.966.551.725.595.65.595-1.029a9.328,9.328,0,0,1,2.928-5.914c.556-.454.636-.345.636.87a5.331,5.331,0,0,0,.407,2.114c.346.616.475.473.861-.953a9.2,9.2,0,0,1,1.547-2.969l1.093-1.292.324,1.554a11.336,11.336,0,0,1-.37,4.6Zm30.471,2.723c-.405,1.051-.7.306-.367-.94.225-.852.345-.964.459-.427a2.847,2.847,0,0,1-.092,1.367Zm-2.386,2c-.717.713-1.851-2.175-1.24-3.159.194-.313.518.136.882,1.224A4.158,4.158,0,0,1,56.255,130.791Zm29.636,2.577a1.428,1.428,0,0,1-.681,1.1c-.44.144-.454.008-.07-.705a2.21,2.21,0,0,0,.218-1.558c-.193-.5-.141-.559.206-.217a1.822,1.822,0,0,1,.328,1.379Zm-3.319,1.078c.566,1.639.485,1.936-.432,1.586-.725-.277-1.237-2-.874-2.945C81.593,132.238,81.93,132.589,82.572,134.445Z" transform="translate(0 0)" fill="rgba(255,255,255,0.1)"/>
  </g>
</svg>
