<svg xmlns="http://www.w3.org/2000/svg" width="42.763" height="38.012" viewBox="0 0 42.763 38.012">
  <path id="shopping-cart-solid" d="M39.209,22.37l3.51-15.442a1.782,1.782,0,0,0-1.737-2.177H11.82l-.681-3.327A1.782,1.782,0,0,0,9.394,0H1.782A1.782,1.782,0,0,0,0,1.782V2.97A1.782,1.782,0,0,0,1.782,4.751H6.97l5.215,25.5a4.158,4.158,0,1,0,4.978.636H32.728a4.156,4.156,0,1,0,4.722-.772l.41-1.8a1.782,1.782,0,0,0-1.737-2.177H16.193l-.486-2.376H37.471A1.782,1.782,0,0,0,39.209,22.37Z" fill="#be6f6f"/>
</svg>
